<svg version="1.2" xmlns="http://www.w3.org/2000/svg" viewBox="0 0 288 213" width="288" height="213">
	<title>City_2-grass-svg</title>
	<style>
		.s0 { fill: #000000 } 
	</style>
	<path id="Forma 28" fill-rule="evenodd" class="s0" d="m259.2 45.8c-1 4.8 0 10.2 0 15.1 0 1.9-0.3 4.2 1 5.8 0.7 0.9 2.1 0.9 3.1 1.3 1.2 0.6 6.5 3.1 7.7 1.9 0.6-0.6-1.2-0.7-1.2-1.1 0-0.2 1.7-2.7 1.8-2.7 0.1 0.1 0.3 1.7 0.5 2 0.2 0.3 2.4 0.4 2.5-0.2 0.7-3.4-4.1-9.4-7.6-8.5-1.2 0.3 2 5.6 1.6 6.9-0.5 1.6-6.2 1.2-7.2-0.4-0.5-0.9 4.5-1 3.7-4.8-0.3-1.4-4 0.1-4.8-0.6-1.4-1.1-0.1-10.8 0.7-12.1 0.2-0.3 2.4 1.4 2.6 1.6 2.3 2.3 4 5.6 6.6 7.5 3.3 2.6 5.4 6.5 8.6 9.2 0.6 0.5 5.8 4.9 5.5 5.3-0.5 0.5-4.3 0.9-5.1 1.1-7.2 1.9-9.9 1.3-16-3-1.4-1-4.6-1.4-5.4-3-1.6-3.3 0-11.3 0-14.8"/>
	<path id="Forma 29" fill-rule="evenodd" class="s0" d="m277.4 44.9c1.1-0.4 3.5-0.8 4.3 0.4 1.4 2.1 1.6 8.1-2.1 8.2-1.1 0-2.7-1.5-2.2-2.7 0.5-1.6 1.1 1.2 1.8-0.2 1.4-2.5-0.9-4.8-2.8-1.8-1.8 2.8 0.8 4 2 6.3 0.3 0.6 1.5 2.4 0.5 3-2.9 1.7-4.5-12.1-1.5-13.2z"/>
	<path id="Forma 30" fill-rule="evenodd" class="s0" d="m248.6 33.9c-1.7-1.6 0.4-3.5 1.6-4.3 1.5-0.9 3.7 1.4 4.1 1.4 1.2 0 2.2-2 3.6-1.1 0.4 0.3 0.3 3.1 0.1 3.4-0.3 0.2-1.7-0.2-1.3 0.6 0.4 0.7 5.1 5.9 5.8 5.1 0.3-0.3-3.3-4-4.1-4.1-1.2-0.2 3.6 1.3 3.6 0.1-0.1-2-5.7-6.9 1.2-4.8 7.7 2.5 7.9 5.2 6.8 13.1-0.2 0.9 0.3 8.2-0.6 8.2-0.7 0-3.7-4-4-4.4-4.8-4.4-16.1-12.5-16.8-13.2z"/>
	<path id="Forma 31" fill-rule="evenodd" class="s0" d="m278.2 34c-0.2-0.6-0.2-2-0.7-2.3-0.5-0.3-1.4 0.2-1.8-0.1-0.6-0.5 1.6-0.6 2.4-1 1.6-0.9 5.2-1.5 6.5 0.6 0.7 1.2-1.3 1.3-1.4 2.2-0.1 0.8 0.6 2.9 0.4 3.5-0.1 0-1.7 0.3-2.1 0.6-0.7 0.8 0 2.1-0.5 2.8-0.3 0.4-2.7 0.7-3.3 1-1.3 0.7-2.2 2.7-3.6 3-0.9 0.3-1-2.5-0.7-3 0.4-0.8 1.3-0.9 1.7-1.5 0.5-0.7-0.2-1.8 0.2-2.5 0.3-0.6 1.6-0.4 2.2-0.6 1.8-0.8 2.1-3.1 2.1-4.8"/>
	<path id="Forma 32" fill-rule="evenodd" class="s0" d="m213.1 61c0.4 0.5 2.4 2.2 1.7 3-3.6 3.8-4-4.3-4.7-6.4-0.3-0.8 1.2 0.9 3 3.4z"/>
	<path id="Forma 33" fill-rule="evenodd" class="s0" d="m177.5 182.2c0.6-0.3 1.6 0.9 2.3 1 2.6 0.5 5.2 1.5 7.9 1.5 2 0 4 0 5.9 0 0.2 0 2 0.4 1.7 0.8-0.3 0.4-3.4 0.4-3.7 0.4-3.4 0-15.1-3.2-14.1-3.7z"/>
	<path id="Forma 34" fill-rule="evenodd" class="s0" d="m89.6 83.8c0.5 4 1.5 7.9 2.3 11.8 1.3 5.5 3.7 10.8 5 16.3 0.1 0.4 0.9 5 0.7 5-5.5 0.8-9.2-0.8-14.5 2.2-1.2 0.6 2-2 2.3-3.3 0.6-2.6 0.4-5.5 0-8.1-1.3-7.4-5.6-22.3-12.6-26.6-1.8-1.1-7.4 8.8-9 10.1-4.5 3.5-23.3 3.7-24.6 15.3-0.8 7.1 9.2 6.2 9.8 11.2 1.1 9.1-7.3 12.3-9.3 20.6-2.1 8.8 4 11.2 7.4 18.2 3.6 7.2 4.7 16.1 10.2 22.2 5.2 5.8 13.7 1.8 20 5.9 3.5 2.3 6.9 12.2 8.6 11.7 2.9-0.9 4.8-3.8 5.9-6.5 0.3-0.6 0.6-5 1.3-5 0.6 0 9.4 9.5 9.4 10.1-0.2 1.5-7.6 5.4-9.1 5.1-0.9-0.2-2.2-4.3-2.9-3.5-3.2 3.4 1 7.9-4 8.8-0.1 0-0.4 0-0.5-0.1-4.2-3.1-6.3-6.6-12.1-7.7-6.3-1.2-13.1-1.7-19.6-1.5-1.7 0-3.8 2.3-5.4 1.6-3.2-1.4-3.2-11.4-6.7-11.7-2.3-0.2-4.5 7-7.4 6.1-3.4-1.1-5.8-8.4-8.4-11-0.9-0.9 1.9 1.7 3.1 2.3 1.3 0.6 6.9 0.4 7-1.7 0-0.3-4.5-6.2-5-7.2-0.6-1.2-4.1-3.2-2.8-3.1 2.3 0.3 5.4 3.7 7.8 1.6 0.8-0.8-9.8-12.3-0.9-10.9 4.9 0.8 2.2 6.7 4.2 10 0.5 0.9 5.5 4.3 4.6 5.6-1.3 2-5.6 0.5-6.7 2.7-0.7 1.5 11 4.2 11.1 4.2 2.5-2.1-0.7-9.2-1.6-11.3-3-7.4-6.4-14.9-10.1-22-1.8-3.3-5.5-4.8-7.2-8.2-1.3-2.4-2.4-7-1.4-9.7 0.5-1.3 3.8 0.1 3.9-1 0.1-1.6-1.5-3.9-1.7-5.6-0.2-2.8 2-8.4-3.4-7.4-4 0.8-1.2 8.9-2.6 9.6-1.6 0.7-2.4-5.5-3.3-4-4.8 7.8 1.3 17.6 5.5 23.7 0.7 1.1 4.7 7.5 3.4 8.8-1.2 1.1-6.8-2-8.7-1.7-1.5 0.2-4.2 3.1-4.9 3.1-2.6 0.1-3.3-6.9-3.3-8.5-0.2-3.3 1.8-6.4 1.2-9.6-1.2-7.2-5.5-13.4-1-20.7 1.5-2.4 6.9-10.2 10.1-10.5 4.6-0.4 13.8 9.4 11.9-3.4-0.1-1.1-0.8-1.8-1.3-2.8-4.1-9.1-3.3 2.6-8.6 3.4-3.2 0.4-7.1-4.5-10.4-1.7-1.1 0.9-6.3 10.9-7.1 10.1-6.3-6.4 4.2-17.5 5.1-23.1 0.7-4.5 0-9.1 0.4-13.7 0.4-3.5 0.9-8 4-10.5 3-2.4 14.3-0.5 16.4 2.9 0.5 0.8-9.9 6.1-11.1 7.2-1.4 1.3-6.8 13.2-1.8 13.1 2.7-0.1 4-8.8 6-10.9 4.1-4.3 13.3-4.8 12.7-12.5-0.4-4.5-10.3-2.9-10.3-6.6 0-4.6 18.4-11.4 21.2-9.8 12 7.2-23.6 31.3-6.7 29.7 4.8-0.5 12.5-12.6 12.9-17.4 0.2-2.8-1.7-5.8-2-8.6-0.6-4.5-4.3-9.5-0.3-10.3 7.3-1.6 17.7 9.5 15.3 16.8-0.4 1.3-5.8 8.6-3 10.3 2 1.2 5.8-2.9 8.5-1.6 1.7 0.7 7 6.6 9.2 3.7 1.2-1.5 0.9-5.6 0.3-7.4-0.4-1.2-3-1.2-2.5-1.1 2.9 0.7 7.1 18 7.1 18.5z"/>
	<path id="Forma 35" fill-rule="evenodd" class="s0" d="m50.3 129.4c0.3-0.4 1.3-3.3 1.4-3.3 0.6 0 0.3 3.7 0.3 4.3 0 2.6 1.1 4.9 1.8 7.4 2.2 7.2 5.3 17 10.6 22.6 6.2 6.5 10.8 5.7 18 1 1-0.7 4.1-4 5.2-4 0.8-0.1-0.2 1.5-0.3 2.2-0.6 2.5-1.2 5.1-1.5 7.6-0.4 3.8-0.4 7.7-0.4 11.5 0 0.6 0.4 3.5-0.1 3.8 0 0-2.3-2.8-2.8-3.1-1.8-1.3-4.7-1.8-6.7-2.3-3.8-0.9-8-1.9-11.9-2.1-1.3-0.1-4.7 1-5.7 0.5-1.7-1.1-1.6-7.4-2.1-9.2-2.3-9.1-7.2-15.6-10.6-24.1"/>
	<path id="Forma 36" fill-rule="evenodd" class="s0" d="m53.8 118.2c0.1-1.7 1-4.1-0.7-5.3-1.7-1.2-6.8-1.7-7-3.9-0.4-5.5 9-6.6 12.8-8.3 1.8-0.8 3.6-1.7 5.1-3 0.1-0.1 2-1.9 2.1-1.7 1.3 2.4 1 5.8 2.2 8.4 0.4 0.8 1.7 1.9 1.8 2.8 0.1 0.9-5.9 4.1-6.8 5.4-3.1 4.6-2.8 9.3-3 14.6-0.1 5.1 0.4 9.9 1.3 14.9q0.3 1.8 0.8 3.6c0 0.1 0.8 2.8 0.6 2.7-1.8-0.8-3-4.8-3.6-6.5-2.3-6.4-3.6-13-6.2-19.3"/>
	<path id="Forma 37" fill-rule="evenodd" class="s0" d="m67.1 123.5c-1.5 0.9-2.1 4.2-2.7 5.8-0.1 0.3-1 3.2-1.1 3.1-1.6-4.6-0.8-16 3.3-19.5 2.1-1.8 4.8-2.8 7.2-4.4 0.4-0.2 4.1-3.3 4.3-2.6 0.6 1.6-2.9 5.4-3 7.4-0.2 5 3.4 8.1 3.2 12.8-0.2 5.2-4.2 10.5-5.3 15.6-0.8 3.4-0.7 6.8-1.1 10.3 0 0.2-0.3 3.1-1 2.9-0.8-0.3-1.3-2.2-2-2.8-0.9-0.8-3.4-0.9-3.9-1.7-1.8-2.7-0.3-6.3 0.3-9.1 1.7-7.6 3.1-15.2 5.1-22.8"/>
</svg>