<svg version="1.2" xmlns="http://www.w3.org/2000/svg" viewBox="0 0 288 213" width="288" height="213">
	<title>City_2-grass-svg</title>
	<style>
		.s0 { fill: #000000 } 
	</style>
	<path id="Forma 38" fill-rule="evenodd" class="s0" d="m80.7 139.5c3.5-4.7 3.3-10.1 1-15.2-1.5-3.2-5.5-8.4-1.3-11.5 0.3-0.2 0 1.3 0 1.4 0 1.1-0.1 2.4 0.1 3.5 0.4 2.4 3.3 5.5 5.5 6.6 2.5 1.3 4.4-1.3 5.3-3.1 0.3-0.5 0.1 1 0 1.6-0.2 0.7-0.4 1.5-0.6 2.3-0.6 2.3-0.7 4.7-1.1 7-1.3 7.3-2.9 14.6-6.6 21.2-2.3 4-6.2 10.1-11.8 8.6-2-0.5-3.7-3.8-4.7-5.5-0.7-1-1.4-2.1-2-3.1 0-0.1-0.1-0.2 0-0.2 2.5 1.7 3.8 5.4 6.7 6.3 7.9 2.7 7.2-15.3 7.7-18.4"/>
	<path id="Forma 39" fill-rule="evenodd" class="s0" d="m72.4 85.4c0.4 0.8 1.5 1.2 2 1.9 2.1 2.5 4.1 8.9 4.4 11.9 0.2 1.2-4.8 4.6-5.1 4.2-0.8-1.2-0.8-3.9-1.1-5.2-0.8-2.7-2.4-5.3-2.8-8.1"/>
	<path id="Forma 40" fill-rule="evenodd" class="s0" d="m100.8 125.6c3.2 1.2 0.5 11 0.1 13.3-1.7 9.4-3 18.7-5.1 28-0.9 3.8-1.6 10.5-4.3 13.4-0.6 0.5-0.2-1.5-0.2-2.2q0-1.9 0-3.7c0-3.9 0.2-7.9 0-11.8-0.2-4.2-1.3-8.8-0.4-13 0.9-4.1 3.7-7.8 4.9-11.8 1.2-4.3 0.6-9.3 0.6-13.7"/>
	<path id="Forma 41" fill-rule="evenodd" class="s0" d="m109.9 147.2c2.4 2.3 1.4 7.4 1 10.1-0.8 4.4-2.8 8.5-2.7 13.1 0.1 7.3 3.8 13.9 4.1 21.1 0.2 5.3 0 9.4-2.7 13.9-0.8 1.4-1.9 3.1-3 4.3-0.2 0.2-1.3 2.3-1.3 2.3 0.5-0.2 1.4-2.7 1.6-3.2 1.4-3.4 1.9-7 1.9-10.6 0-4.3-0.1-8.9-1.3-13.1-1.4-4.7-4.1-8.5-4-13.6 0.1-6.8 5.1-25.6 6.4-24.3z"/>
	<path id="Forma 42" fill-rule="evenodd" class="s0" d="m286.1 114.7q0 8.9 0 17.9c0 1.4-0.9 3.5-0.8 4.5 0.1 1.2 2.2 0.8 1.7 3.2-0.2 0.8-0.9 0.4-1.3 0.8-0.5 0.4 0.4 0.6 0.5 0.8 0.6 0.8-0.8 1.8-1.4 2.6-0.5 0.6-2.3-0.1-2.5 0.7-0.5 2.5 5 0.6 4.2 4.3 0 0-2.9-0.6-3.1-0.1-0.3 0.6 1.2 1.5 1.4 2 0.3 0.5-0.9 1.4-1 2-0.2 1.5 2.3 2.8 0.5 5.2-0.2 0.2-1.5-4-1.6-4.4-1.1-3.2-3-7.4-2.4-10.9 0.2-1.6 2-1.9 3-2.7 1.5-1.2 1.4-5.3 1.4-7"/>
	<path id="Forma 43" fill-rule="evenodd" class="s0" d="m282.6 119.7c-0.2 3-2.9 4.1 1.5 4.1"/>
	<path id="Forma 44" fill-rule="evenodd" class="s0" d="m281.7 117.6c-1.9 0-5.2 2.5-6.9 1.5-0.3-0.2 0.7-0.3 1-0.4 0.5-0.2 1-0.6 1.5-0.9 1.7-0.8 3-2.2 5-2.3"/>
	<path id="Forma 45" fill-rule="evenodd" class="s0" d="m287.6 87.8c-2.5 1.3-6.3 7.7-6.8 10.3-0.2 1.5 3.5 1.9 4.3 1.1 0.3-0.3 0.3-3 0.1-3.3-0.4-0.4-2.4 2-2.6 2-0.3 0 1.5-2.1 1.5-2.1 0.8-1.1 1.6-2.9 2.5-3.9 0.8-0.7 0.1 2.1 0.1 3.2 0 1.4 0.4 5.1-0.7 6.1-0.2 0.3-7.2-0.7-7.4-0.8-0.7-0.4 1.9-3.5 2-3.6 2-2.9 4.7-7.4 5.5-10.8"/>
	<path id="Forma 46" fill-rule="evenodd" class="s0" d="m275.2 102.8c2.9 0 5.8 0.9 8.9 0.9 0.2 0 2.5-0.1 2.4 0.5 0 0.2-1.4 0.1-1.5 0.1"/>
	<path id="Forma 47" fill-rule="evenodd" class="s0" d="m284.4 104.3c-1.3-0.5-3.1-0.5-4.2-1.2"/>
</svg>