<svg version="1.2" xmlns="http://www.w3.org/2000/svg" viewBox="0 0 288 213" width="288" height="213">
	<title>template</title>
	<style>
		.s0 { fill: #000000 } 
	</style>
	<path id="Capa 11" class="s0" d="m199.7 37.6c0.4 4.2 0 4.2 0 8.4 0 2.8-0.3 2.8 0 5.6 0.6 5.7 2.8 11.2 2.8 11.2 0 0 2.2 2.7 2.8 5.6 0.7 3.7 0.6 4.6-1.1 7.8-2.8 5.2-10.7 7.2-10.7 7.2h-22.3l-21.8-9.4v-8.4c0 0 2.8 0.2 5.5 0 8.5-0.6 9.6 1 16.8-2.8 3.8-2 3.6-2.6 6.7-5.7 5.3-5 9.5-11.1 9.5-11.1 0 0 3.9-28.7 7.3-26.9 2.4 1.2 3.6 9.1 4.5 18.5z"/>
	<path id="Capa 14" class="s0" d="m82.2 57.2c0 0 9.3 6.7 19.6 9.5 8 2.1 8.6-0.2 16.8 1.7 4.3 1 4.1 2.1 8.4 2.8 4.1 0.6 8.4 0 8.4 0l5.6 5.6c0 0 6.4 4.4 13.4 5.5 3 0.5 3.9-1.3 6.1 0.1 2.3 1.4 3.5 3.5 2.8 5.6-0.7 2.1-2.6 2.1-5.6 2.8-2.6 0.6-2.8-0.2-5.5 0-6.3 0.4-12.4 2.1-12.4 2.1 0 0-7.9-1.3-15.6-3.3-4.8-1.3-9.5-2.8-9.5-2.8l-17.4-8.4 5.6-7.3"/>
	<path id="Capa 15" class="s0" d="m168.9 85.2c0 0 12.6 2.1 25.2 2.8 2.8 0.1 3 0.6 5.6 0 4.7-1.2 8.4-5.6 8.4-5.6 0 0 3-1.1 5.6-2.8 3.2-2.3 5.6-5.6 5.6-5.6v-5.6c0 0 2.7-1.7 5.6-2.8 5.3-2.1 11.2-2.8 11.2-2.8l5.5-2.8 5.6-5.6c0 0 4.3 0.5 5.6 2.8 1.2 2.1 0 2.8 0 5.6 0 2.8 0 5.6 0 5.6l-5.6 11.2-5.6 2.8c0 0-4.2 0.5-5.5 2.8-1.2 2 0 2.8 0 5.6 0 2.8-1.4 4.2 0 5.6 1.3 1.4 5.5 0 5.5 0h5.6l-2.8 5.5-5.6 2.8c0 0-4.3 1.1-8.3 2.8-2.9 1.3-5.6 2.8-5.6 2.8 0 0-8.3-6.2-6.7-10.1 1-2.5 5.2-0.8 6.7-3.8 1-2.2 0-5.6 0-5.6l5.6-8.4 2.8-5.6c0 0-3.1-3.1-5.6-2.8-3.2 0.3-5.6 5.6-5.6 5.6l-2.8 5.6c0 0-2.8 2.8-5.6 5.6-4.2 4.2-8.4 8.4-8.4 8.4 0 0-2.8 0-5.6 0-2.8 0-5.6 0-5.6 0h-5.6l-5.6-2.8h-5.6c0 0-4.3-3.3-8.4-2.8-2.8 0.3-5.6 2.8-5.6 2.8"/>
	<path id="Capa 17" class="s0" d="m96.2 85.2c1.8 0.1 17.5 9.2 17.5 9.2 0 0 2.1 0.9 4.3 1.3 4.4 0.9 9 0.7 9 0.7 0 0 2.7 2.2 5.6 2.8 5.3 0.9 11.2-2.8 11.2-2.8 0 0 2.9-0.6 5.6 0 2.9 0.6 2.6 2.1 5.5 2.8 2.7 0.5 2.9-0.3 5.6 0 5.7 0.5 11.2 2.7 11.2 2.7h8.4l2.8 5.6-2.8 5.6-8.9 1.1-5.1-1.1-24 0.5-9.5-3.3h-8.4c0 0-0.9-3.2-2.8-5.6"/>
	<path id="Capa 18" class="s0" d="m188.5 115.9c0 0 0-2.8 0-5.6 0-2.8 0-5.6 0-5.6h5.6l12.9-2.2 6.7-0.6 2.8-5.5c0 0 0.4 1.5 0 2.8-0.6 1.7-2.2 1-2.8 2.7-0.5 1.3 0 1.4 0 2.8 0 1.4 0 1.4 0 2.8 0 1.4-0.7 2.1 0 2.8 0.7 0.7 2.1-0.7 2.8 0 0.7 0.7-0.7 2.1 0 2.8 0.7 0.7 2.1-0.7 2.8 0 0.7 0.7 0 1.4 0 2.8-8.4 4.2-7.8 6.7-16.8 8.4-5.4 1.1-7.7 2.9-11.2 0-2.8-2.3-2.8-8.4-2.8-8.4z"/>
	<path id="Capa 19" class="s0" d="m247.2 115.9c0 0-7.8 15.5-17.3 14-4.3-0.6-11.7-6.3-10.6-8.4 0.4-0.8 3.1 0.7 3.7-1.2 1.3-4.4 27.9-20.6 30.4-19"/>
	<path id="Capa 20" class="s0" d="m216.5 124.3c0.9 0.1 1.8 1.8 3.1 3.8 1.5 2.1 2.5 4.6 2.5 4.6 0 0 4 2.2 8.4 2.8 2.7 0.4 2.9 0.6 5.6 0 2.9-0.7 3-1 5.5-2.8 3.2-2.2 2.8-2.8 5.6-5.6 2.8-2.8 5.6-5.6 5.6-5.6l5.6 5.6v5.6 5.6l-5.6 2.8-5.6 2.8c0 0-2.1 2.6-2.8 5.6-0.6 2.6 0 5.6 0 5.6h-11.1l-8.4 2.8-2.8-5.6v-5.6l-2.8-5.6c0 0-2-2.7-2.8-5.6-1.5-5.2-2.2-11.5 0-11.2z"/>
	<path id="Capa 23" class="s0" d="m96.2 90.8c4.6 0.5 22.4 22.3 22.4 22.3 1.7 1.7 22.4 5.6 22.4 5.6l5.1-1.6c0 0 21.6-7 31.2 1.6 2.8 2.5 2.8 8.4 2.8 8.4v5.6c0 0-2.1 4.1-2.8 8.4-0.6 4.1 0 4.2 0 8.4 0 2.8 1 4.6 0 5.6-1.7 1.8-5.1-2-8.4-5.6-4.1-4.5-1.5-6.7-5.6-11.2-3.3-3.6-5.3-1.8-8.4-5.6-1.9-2.3-0.6-3.5-2.7-5.6-2.1-2.1-2.7-1.8-5.6-2.8-13.4-4.6-28-5.6-28-5.6 0 0-3.3 4.4-2.8 8.4 0.3 2.9 2.8 5.6 2.8 5.6v5.6 5.6l-2.8 5.6"/>
	<path id="Capa 24" class="s0" d="m118.6 151.7c5.6 1.6 2.8-24.6 2.8-24.6l5.6-2.8 11.2 2.8c0 0 11.2 0 11.2 14.5 0 0.6-2.8 0.3 2.8-0.5l7.8 6.7c3.5 3.5 6.1 7.3 6.1 7.3 0 0 2.8 1.4 5.6 2.8 2.8 1.4 5.1 1 5.6 2.8 0.7 2.2-3 2.5-5.6 5.6-3.2 3.8-4.4 3.7-5.6 8.4-0.6 2.6-0.6 2.9 0 5.6 0.7 2.9 0.9 3.2 2.8 5.5 5.1 6.1 14 8.4 14 8.4h16.8l5.6-5.6h14l19.5-2.8 22.4 5.6 2.8 5.6-5.6 5.6c0 0-6.9 2.1-14 2.8-6.9 0.7-13.9 0-13.9 0h-14c0 0-5.6 0.3-11.2 0-9.9-0.6-19.6-2.8-19.6-2.8 0 0-7.2 1.3-14 0-4.3-0.8-8.4-2.8-8.4-2.8 0 0-5.9-2.3-11.1-5.6-7.9-4.9-6.6-7.1-14.6-11.8-2.3-1.3-2.6-0.9-5-2.1-4.5-2.4-3.7-4.5-8.4-5.6-2.6-0.7-3 0.6-5.6 0-3-0.7-5.6-2.8-5.6-2.8l2.8-8.4c0 0-2.8 5 2.8-11.8z"/>
	<path id="Capa 29" class="s0" d="m174.5 175.7c-2.6-4.2 5.5-6.5 8.4-14 2.1-5.3 2.2-5.5 2.8-11.2 0.5-4.1-0.4-4.3 0-8.4 0.6-5.7 2.8-11.2 2.8-11.2 0 0 4.9 0 9 0.5 2.8 0.4 5-0.5 5-0.5l5.6 2.8c0 0-0.6 2.9 0 5.6 0.7 3 2.1 2.6 2.8 5.6 0.6 2.7 0 5.6 0 5.6 0 0 4.2 0.5 5.6 2.8 1.2 2 0 5.6 0 5.6l5.6 2.8 5.6 2.8c0 0 4.4 1 8.4 0 2.9-0.8 2.7-1.4 5.5-2.8 2.8-1.4 5.6-2.8 5.6-2.8l5.6 2.8 2.8 5.6c0 0 1 3.3 0 5.6-1.7 4.1-3.7 4.4-8.4 5.6-2.6 0.6-5.6 0-5.6 0l-22.3 2.1c0 0-7 0.5-14 0.7-5.6 0.1-5.8 0.9-11.2 0-4.3-0.8-4.2-1.6-8.4-2.8-5.5-1.7-9.3 0.1-11.2-2.8z"/>
</svg>