<svg version="1.2" xmlns="http://www.w3.org/2000/svg" viewBox="0 0 288 213" width="288" height="213">
	<title>City_2-grass-svg</title>
	<style>
		.s0 { fill: #000000 } 
	</style>
	<path id="Forma 10" fill-rule="evenodd" class="s0" d="m107.5 49.6c-1-4.2 8.4-3 9.4-4.2 2-2.3 0.7-7.2 4.2-9.5 1.9-1.2 2.1 3 3.7 3.1 3.4 0.1 12.4-2.7 14 0.7 1.8 3.4-1.1 5.5-4.3 5.9-5.6 0.8-10.6-5.6-15 1.5-2.7 4.4 3.8 6.1 6.1 8 1.4 1.1 2.1 3.3 0.4 4.5-0.9 0.7-2.5 0.4-3.6 0.4-2 0-6.5 0.4-7.6-2-0.8-2-6.1-3.4-7.3-8.4z"/>
	<path id="Forma 11" fill-rule="evenodd" class="s0" d="m125.3 49.3c1-1.4 6.9-0.6 8.3-0.6q1.8 0 3.5 0c0.5 0 1.6-0.5 1.5 0-0.8 3.6-3.8 6-5.2 9.2-0.3 0.7-0.4 3.2-1.2 3.5-2.9 0.8-7.5-11.3-6.9-12.1z"/>
	<path id="Forma 12" class="s0" d=""/>
	<path id="Forma 13" fill-rule="evenodd" class="s0" d="m217.7 31.9c0.4 0 3.9-0.3 4 0.3 0 1.2-6.3 3.2-7 5.4-2.6 8.8 9.6 14.2 16.4 10.5 1.3-0.8 3.4-2 4.4-3.3 3.8-4.9-3.1-9.5-7.6-7.8-0.9 0.3-1 3.8 0 4 3.7 0.8 2-4.7 5.2-2.2 1.6 1.2-0.2 5.3-1.7 5.7-5.4 1.3-12.3-5.4-7.2-10.2 8.2-7.9 16.2 4.9 12.9 12.7-5.1 12.1-26.4 7.6-30.4-3-0.9-2.5 9.9-12 11-12.1z"/>
	<path id="Forma 14" fill-rule="evenodd" class="s0" d="m233.8 57c3.4-3.5 7.9-6.3 10.3-10.7 0.8-1.6 2.2-4 2.4-5.9 0.1-0.6-0.4-4.3 0.2-4.5 1.5-0.7 6 5.5 7 6.3 1 0.8 5 1.8 5.3 2.8 0 0.1-2.2 0.7-2.3 0.8-1.8 0.6-3.6 1.1-5.4 1.9-0.4 0.2-8.1 3.7-8.2 3.5-0.3-1.7 5.4-10.4 6.7-9.7 2.2 1.1 0.8 3.7-1 4.8-0.6 0.4 0.5-3.1 0.7-2.4 0.2 0.9-1.5 2-1.9 2.5-0.1 0.2-1.2 1.9-1.2 1.8-0.6-0.3 6.3-3.2 6.4-3.3 1.2-2-2.6-4.7-4.2-5-1.8-0.3-1.6 3.2-2.7 4.4-2.9 3.3-5.3 7-8.2 10.4-0.8 0.8-1.3 3-2.1 3.6-2.8 1.7-14.5 3.6-14.6-1.8 0-0.1 8.4-0.1 9.3-0.1"/>
	<path id="Forma 15" class="s0" d=""/>
	<path id="Forma 16" class="s0" d=""/>
	<path id="Forma 17" class="s0" d=""/>
</svg>