<svg version="1.2" xmlns="http://www.w3.org/2000/svg" viewBox="0 0 288 213" width="288" height="213">
	<title>City_2-grass-svg</title>
	<style>
		.s0 { fill: #000000 } 
	</style>
	<path id="Forma 18" fill-rule="evenodd" class="s0" d="m243.1 87.8c0.3-0.4 1.8-0.5 2.1-0.2 0.7 0.6-3.7 2.7-2.1 0.2z"/>
	<path id="Forma 19" fill-rule="evenodd" class="s0" d="m245.6 85.1c-2.1 0-3.9 0.5-5.2 2.4-1.5 2.2 1.1 4 3.2 3.8 1.9-0.2 4.3-3.5 3.1-5.5-0.3-0.6-2.8-1.1-1.5-2.4 2.9-2.8 4.8 4.5 4.6 6-0.2 1.4-2.5 1.5-3.5 2-3.2 1.6-7 2.7-7.8-2.2"/>
	<path id="Forma 20" fill-rule="evenodd" class="s0" d="m238.5 87.5c0-1.1 0.2-2.3 1.5-2.4"/>
	<path id="Forma 21" fill-rule="evenodd" class="s0" d="m254.5 95.4c0 4.2 4.2 5.5 7.9 3.5 1.5-0.8 3-2.2 4.3-3.3 0.6-0.6 1.2-2.7 1.6-2 0.4 0.5-0.1 6.3-0.6 7.1-0.5 0.9-4.5 1.2-5.4 1.3q-1.9 0.2-3.8 0.2c-4.2 0.1-4.8-4.3-4.9-8 0-0.5-0.1-3.9-0.6-4.2-0.2-0.1-0.3 2-0.3 2.2 0.1 1.5 0.4 2.9 0.3 4.4 0 1.2-2.1 1.2-2.9 1.5-0.3 0.1-1.3 1.6-1.7 1.3-0.4-0.3 0.6-3.1 0.8-3.7 1.2-3.3 1.2-10.5 3.5-13 0.4-0.4 0.3 1.1 0.4 1.2 0 0.9 0.1 4.3 1.4 4.1 0.7 0 6-3.5 5.5-4-0.8-0.8-2.6 0.8-3.1 1.2-0.5 0.3-1.6 1.3-1.2 1 2.1-1.6 2.5-5.5 4.7-6.9 0.4-0.2 0.9 1.8 1 2 0.3 0.5 2.1 3.2 1.8 3.5-1.2 1.2-7 2.6-6.9 5 0.1 2.2 7.4 3.1 7.1 4.1-1.2 4-5.5 4.4-7.9 1.7-0.7-0.8-0.4-4.4-0.4-5.5"/>
	<path id="Forma 22" fill-rule="evenodd" class="s0" d="m252.2 77.1c0.6-1.8 2-5.4 3.4-6.5 0.4-0.5 0.1 1.2 0.1 1.8 0 0.2-0.3 3.3 0.3 3.5 0.8 0.2 3.3-2.5 3.5-2.4 1 0.9-1.5 2.1-2.1 3.3-1.2 2.5-2.4 5.1-2.6 8 0 0.5 0-1.1 0-1.6-0.1-1-0.2-2.1-0.4-3.1-0.1-0.8-2.5-2-2.2-3z"/>
	<path id="Forma 23" fill-rule="evenodd" class="s0" d="m249.5 89.5c0.2-1.6 2.2-2.1 3.5-2.7 7.6-3.5 15.7-6.8 23.8-9.2 3-0.9 8.8-3.2 9.5-0.1 1.1 5-11 19.7-13.6 23.3-1.4 2.1-2.9 4-4.2 6.2-0.3 0.4-0.8 1.5-0.3 1.5 3.5-0.1 5.7-4.4 10.1-3.9 1 0.1 9.3 3.3 7.9 5.6-1.2 1.8-3.9 2-6 2.7-0.7 0.2-7.8 3-9.4 1.9-2.4-1.7 2.8-4.3 2.7-5.2-0.1-0.6-1.1 0.6-1.7 1-0.4 0.2-5.4 3.2-5.6 3.2-2.9 1.6-8.6 3.1-8.5-2.6 0-2.8 1.9-5.5 3.2-7.8 0.4-0.6 1.7-2.3 1-2-5.9 2.7-0.7 4.1 1 6.8 0.6 0.8 0 3.2 0.9 2.8 2.1-0.9 5.3-7.4 7.1-9.2 0.6-0.6 1.4-1.6 2.2-1.3 0 0 0.7 1.2 0.8 0.9 0.6-1.1-0.1-3.3-0.2-4.5-0.1-1.7-0.6-7.9-3-8.2-1.3-0.2-7.7 3.3-8.2 1.7-1-3.8 5.8-5.1 5.8-6 0.1-2-2.8-5.8-4-7.3"/>
	<path id="Forma 24" fill-rule="evenodd" class="s0" d="m270.4 139.1c0.8-0.1 1.2 2.5 2.7 2.5 1.1-0.1 1.9-3.3 2.4-2.4 1.4 2.8-1.2 8.7 0.3 12.2 1.4 3.3 3.6 6.2 4.9 9.6 0.2 0.3 1.6 2.7 1.4 3-0.8 1.1-3.5-3.4-3.4-2 0.2 4.2 4.7 7.6 4.4 12.1-0.1 3-2.2 9.3-3.5 12-0.5 1-2.5 4.2-2.2 5.2 0.4 1.4 4.2-2.4 4 2.2-0.2 5.6-8.4 7.9-12.5 9.1-0.8 0.3-3.6 2-4.3 1.7-1-0.4 5.4-4.8 5.5-5 0.4-0.6-2.6 0.5-2.1 0 2.2-2.3 3.9-4.8 4.9-7.9 0.6-1.9-0.7-11.3 0.6-12.6 0.9-0.8 1.7 4.5 1.7 3.3 0-3.6 4.5-5.2 4.7-8.3 0.1-1.7-3.8-4.2-4.4-6.2-0.9-3.5 0.8-7.8-2.1-10.7-0.7-0.8-0.8 3.4-1.5 3.6-0.7 0.2-5.3-7.4-7.2-4.6-1 1.5 4.4 6.1 4.6 7.6 0.2 2.4-0.5 5-1.1 7.2-0.3 1.2-2.3 3.5-1.2 3.4 2.2-0.2 3-4.7 3-4.4-1.5 5.5-0.6 24.8-13.6 18.2-1.8-0.9-7.6-5.6-2-4.9 1.5 0.2 3 3.3 4.7 2.2 3.4-2.1 4.7-7.9 5.3-11.4 0.5-3 1.7-8 0.2-10.9-1.6-3.2-6-4.7-7.8-8-4.5-7.8 12.4-15.7 13.6-15.8z"/>
	<path id="Forma 25" fill-rule="evenodd" class="s0" d="m263.2 131.9c-1 0.7-1.5-2.4-1.7-2.7-0.6-1.4-2.6-0.9-3.3-1.6-0.7-0.8 0.8-2.5 0.9-3.2 0.6-2.1-1-1.5-1.7-2.4-0.3-0.3 1.5-1.7 1.5-2.3-0.1-1.8-4.4 0.7-1.7-2.8 3.5-4.7 3.3 8.3 6.6 6.2 0.1-0.1-0.7-1.7-0.7-1.9-0.2-1.3-0.4-3.6 0.1-4.8 0.4-0.8 1.7 0.4 2.6 0.8 2.9 1.2 5.7 2.8 8.7 3.9 1 0.4 6.8-1.9 6.6-1.3-0.9 3.1-7.2 6.5-9.9 4-1.3-1.2-0.5-4.3-2.6-2-1.1 1.1 3.1 2.7 3.2 2.8 2.4 1.4 5 2.7 7.4 4.1 0.7 0.4-1.6 0.2-2.4 0.5-1.5 0.6-4.7 2-6.1 2.7-1.2 0.6-1.9 2-3.2 2.3-0.7 0.2-0.8-1.3-1.2-1.9q-2.1-3.5-4.1-7.1c-0.4-0.8 2.2 5.8 1 6.7z"/>
	<path id="Forma 26" fill-rule="evenodd" class="s0" d="m281.1 125c0.8 2.6 2.6 8 1 10.6-1.3 2.1-6.6 6.1-7.4 1.4-0.6-3.5 4.2-0.8 4.3-0.9 1.2-0.8 2-7.6 2.1-9"/>
	<path id="Forma 27" fill-rule="evenodd" class="s0" d="m221.4 74.2c4.6-3.7 12.7-6.6 16.1 0.3 1 1.9 0 8.2-2.7 8.5-0.8 0.1-3.2-3.5-4-4.1-3-2.2-5.8-2.1-9.4-2.1"/>
</svg>