<svg version="1.2" xmlns="http://www.w3.org/2000/svg" viewBox="0 0 288 213" width="288" height="213">
	<title>City_2-grass-svg</title>
	<style>
		.s0 { fill: #000000 } 
	</style>
	<path id="Forma 1" fill-rule="evenodd" class="s0" d="m101.1 74.5c-3.4-0.3-8.1-5.7-10.7-7.6-0.8-0.6-9-4.9-8-5.7 2.5-2 4.5 1.1 6.9 1.4 5.5 0.9 17.9 5.5 18.9 11.9 0.6 4-6 2.1-7.7 2.7-0.8 0.3-2.8 2-3.7 1-1.9-2 2.9-3 1.6-4.9"/>
	<path id="Forma 2" fill-rule="evenodd" class="s0" d="m175.8 52.4c-2.6 2-6.3 1.8-9.3 1.6-2.2-0.1-4.1-0.5-5.8-1.7-4.8-3.3-5.4-13-1.4-17.1 3-3 23.3 12.2 16.5 17.2z"/>
	<path id="Forma 3" class="s0" d=""/>
	<path id="Forma 4" fill-rule="evenodd" class="s0" d="m172.9 32.5c-0.8 1.6-4.3 2.3-4.4-0.4 0-1.1 1.2-1.6 1.5-2.6"/>
	<path id="Forma 5" fill-rule="evenodd" class="s0" d="m172.6 32.2c-0.7-0.4-1.6-1.1-2.3-1.5"/>
	<path id="Forma 6" class="s0" d=""/>
	<path id="Forma 7" class="s0" d=""/>
	<path id="Forma 8" fill-rule="evenodd" class="s0" d="m178.2 41.1q-1.1 0-2.3 0c-4.8-0.2 1.6-7.4 2.9-3.9"/>
	<path id="Forma 9" fill-rule="evenodd" class="s0" d="m179.1 37.5q0 1.2 0 2.4"/>
</svg>