<svg version="1.2" xmlns="http://www.w3.org/2000/svg" viewBox="0 0 288 213" width="288" height="213">
	<title>Terreno</title>
	<style>
		.s0 { fill: #000000 } 
	</style>
	<path id="Capa 1" fill-rule="evenodd" class="s0" d="m40.2 192.4c-0.1-0.8-9.6-12-10.7-16.4-2.2-8.2-6.5-16.5-8.1-24.6-1.2-5.7 0.8-11.6-1.3-17.1-2.2-6-7.3-13.1-7.6-19.5-0.3-6.5 4.9-11.1 5.4-17 0.9-10.1-2-25.5 6-33.4 4-3.9 12.2-4.2 17.2-6.6 6.8-3.2 12.9-9 20-11.5 12.5-4.5 29-3.4 42.1-4 7.8-0.3 50.3-0.8 54.4-2.3 5.5-2 7.6-8.1 13.7-9 8.7-1.3 15.5 3.2 23.7 4.7 7.4 1.2 16 0.9 23.5 0.7 15.5-0.4 31.1-2.7 46.6-2.7 3.3 0 14.3 2.5 15.8 6.1 2.5 6.2 0.2 15.8 0.8 22.4 1.3 14.8 4 29.4 3.7 44.7-0.3 17.6-4.9 34.5-4.9 52.1 0 15.3 6.5 35.4-11.3 40.8-30.7 9.4-63.3 3.9-94.7 2.6-18.5-0.8-36.9 1.5-55.5 1.4-5.5 0-10.7-2.3-16.2-3.1-10.8-1.5-22.3-1.8-33.2-1.8-5.8 0-11.3-1.6-16.9-1.6-1.4 0-10.8-0.2-7.6-1.1"/>
</svg>